<svg width="24px"  height="24px"  viewBox="0 0 25 24" fill="none" xmlns="http://www.w3.org/2000/svg">
<path fill-rule="evenodd" clip-rule="evenodd" d="M6.57607 7.14051C6.72206 7.28651 6.91506 7.35951 7.10606 7.35951C7.29906 7.35951 7.49007 7.28651 7.63706 7.14051C7.93007 6.84651 7.93007 6.37151 7.63706 6.07851L6.66606 5.10951C6.37306 4.81651 5.89806 4.81751 5.60506 5.10951C5.31206 5.40351 5.31206 5.87751 5.60506 6.17051L6.57607 7.14051Z" fill="#000000" />
<path fill-rule="evenodd" clip-rule="evenodd" d="M12.5 5.12C12.914 5.12 13.25 4.784 13.25 4.37V3C13.25 2.586 12.914 2.25 12.5 2.25C12.086 2.25 11.75 2.586 11.75 3V4.37C11.75 4.784 12.086 5.12 12.5 5.12Z" fill="#000000" />
<path fill-rule="evenodd" clip-rule="evenodd" d="M5.622 11.9999C5.622 11.5859 5.286 11.2499 4.872 11.2499H3.5C3.086 11.2499 2.75 11.5859 2.75 11.9999C2.75 12.4139 3.086 12.7499 3.5 12.7499H4.872C5.286 12.7499 5.622 12.4139 5.622 11.9999Z" fill="#000000" />
<path fill-rule="evenodd" clip-rule="evenodd" d="M17.8935 7.35976C18.0845 7.35976 18.2775 7.28676 18.4235 7.14076L19.3945 6.17076C19.6875 5.87776 19.6875 5.40276 19.3945 5.10976C19.1015 4.81776 18.6265 4.81676 18.3335 5.10976L17.3635 6.07876C17.0705 6.37176 17.0705 6.84676 17.3635 7.13976C17.5095 7.28676 17.7015 7.35976 17.8935 7.35976Z" fill="#000000" />
<path fill-rule="evenodd" clip-rule="evenodd" d="M18.4238 16.8593C18.1298 16.5673 17.6548 16.5673 17.3628 16.8593C17.0698 17.1533 17.0698 17.6283 17.3628 17.9213L18.3338 18.8903C18.4808 19.0363 18.6728 19.1093 18.8638 19.1093C19.0568 19.1093 19.2478 19.0363 19.3948 18.8903C19.6878 18.5963 19.6878 18.1223 19.3948 17.8293L18.4238 16.8593Z" fill="#000000" />
<path fill-rule="evenodd" clip-rule="evenodd" d="M6.57607 16.8593L5.60506 17.8293C5.31206 18.1223 5.31206 18.5963 5.60506 18.8903C5.75206 19.0363 5.94306 19.1093 6.13607 19.1093C6.32706 19.1093 6.51906 19.0363 6.66606 18.8903L7.63706 17.9213C7.93007 17.6283 7.93007 17.1533 7.63706 16.8593C7.34507 16.5673 6.87007 16.5673 6.57607 16.8593Z" fill="#000000" />
<path fill-rule="evenodd" clip-rule="evenodd" d="M21.5 11.2499H20.128C19.714 11.2499 19.378 11.5859 19.378 11.9999C19.378 12.4139 19.714 12.7499 20.128 12.7499H21.5C21.914 12.7499 22.25 12.4139 22.25 11.9999C22.25 11.5859 21.914 11.2499 21.5 11.2499Z" fill="#000000" />
<path fill-rule="evenodd" clip-rule="evenodd" d="M12.5 18.8798C12.086 18.8798 11.75 19.2158 11.75 19.6298V20.9998C11.75 21.4138 12.086 21.7498 12.5 21.7498C12.914 21.7498 13.25 21.4138 13.25 20.9998V19.6298C13.25 19.2158 12.914 18.8798 12.5 18.8798Z" fill="#000000" />
<path fill-rule="evenodd" clip-rule="evenodd" d="M12.5 7.29968C9.91099 7.29968 7.80499 9.40768 7.80499 11.9997C7.80499 14.5917 9.91099 16.6997 12.5 16.6997C15.09 16.6997 17.196 14.5917 17.196 11.9997C17.196 9.40768 15.09 7.29968 12.5 7.29968Z" fill="#000000" />
</svg>